<?xml version="1.0" encoding="utf-8"?>
<!-- Generator: Adobe Illustrator 15.0.0, SVG Export Plug-In . SVG Version: 6.00 Build 0)  -->
<!DOCTYPE svg PUBLIC "-//W3C//DTD SVG 1.1//EN" "http://www.w3.org/Graphics/SVG/1.1/DTD/svg11.dtd">
<svg version="1.1" id="Layer_1" xmlns="http://www.w3.org/2000/svg" xmlns:xlink="http://www.w3.org/1999/xlink" x="0px" y="0px"
	 width="130px" height="18px" viewBox="0 0 130 18" enable-background="new 0 0 130 18" xml:space="preserve">
<path fill="#E4DCC9" d="M113.5,2.7c-0.4,0-0.7-0.1-1.1-0.1c0.199,0,0.399,0.1,0.5,0.2C113.2,2.9,113.3,2.8,113.5,2.7z"/>
<path fill="#E4DCC9" d="M111.4,2.5c-0.101,0-0.101,0-0.2,0c-0.101,0-0.101,0-0.2,0H111.4z"/>
<path fill="#E4DCC9" d="M109.6,2.6c0.301,0,0.7,0,1,0C110.2,2.6,109.9,2.5,109.6,2.6z"/>
<path fill="#E4DCC9" d="M111.1,2.8c-0.1-0.1-0.199-0.2,0-0.2l0,0c-0.199,0-0.399,0-0.6,0.1C110.7,2.7,110.9,2.7,111.1,2.8z"/>
<path fill="#E4DCC9" d="M111.1,2.8C111.2,2.9,111.4,3,111.4,3C111.3,2.9,111.2,2.9,111.1,2.8z"/>
<path fill="#E4DCC9" d="M110.5,4.8c-0.2,0.1-0.1-0.5-0.5-0.4c-0.9,0.1-1.6,0.4-2.5,0.4c-0.4,0.1-0.9-0.5-1.3-0.4
	c-0.9,0.1-3.101,0.9-1.8,0.9c2-0.1,3.3-0.2,5.1-0.2c1.5-0.2,2.9-0.4,4.3-0.6c0.4,0,0.8,0.1,1.2,0.1c-0.5-0.1-1-0.2-1.6-0.3
	C112.6,4,111.7,4.7,110.5,4.8z"/>
<path fill="#E71F19" d="M105.6,3c-2.5,0-4.899-0.1-7.1-0.1C98.3,3,98.2,3.1,98,3.1C97.7,3,97.5,3,97.3,2.9c-0.3,0-0.7,0-1,0
	c-0.1,0-0.2,0-0.399,0.1l0,0c-0.2,0.1-0.101,0.2,0,0.2C96,3.3,96.2,3.3,96.3,3.4c-0.1,0-0.2-0.1-0.399-0.2C95.7,3.1,95.6,3.1,95.4,3
	c-0.301,0-0.601,0.1-1,0c0.399-0.1,0.699-0.1,1,0C95.6,3,95.8,3,96,3c0.1,0,0.1,0,0.2-0.1c-0.8,0-1.5,0-2.3,0
	c-0.2,0-0.301,0-0.5,0.1C92.8,3.1,92.3,3.2,92,2.9c-0.1,0-0.3,0-0.4,0L91.7,3C91.6,3,91.6,3,91.5,2.9c-0.6,0-1.2,0-1.7,0
	C89.4,3,89,3.2,88.7,3.3c0,0-0.3-0.2-0.4-0.3c-0.3,0-0.5,0.1-0.8,0.2c0.3,0.2,0.6,0.3,0.9,0.5C88.8,4,89.2,3.1,89.7,3.6
	c-0.5-0.5-0.9,0.4-1.3,0.1C88.1,3.6,87.8,3.4,87.5,3.2c-0.5,0.1-1.3,0-1.8-0.2c0.7-0.3,1.3-0.1,1.8,0.2C87.8,3.1,88,3,88.2,2.9
	C88.3,3,88.6,3.2,88.6,3.2C89,3.1,89.4,3,89.7,2.8c-1.101,0-2.3,0-3.4,0c-7.5,0-14.5,0.5-22.3,1C59.8,4,55.7,4.3,51.7,4.5
	S43.9,5.4,40.1,6c-3.8,0.6-7.6,1.3-11.8,1.6c-0.8,0.1-1.7,0.2-2.8,0.5c-1,0.3-2.1,0.5-3.2,0.9c-2.2,0.7-4.3,1.6-5.7,2.3
	c-1.8,1.3-1.8,2.3-1.4,3c0.4,0.7,1.2,1,1.3,1c1.5,0.4,2.6,0.3,3.9-0.1c0.7-0.2,1.4-0.4,2.3-0.601c0.9-0.199,1.9-0.399,3.2-0.399
	c-1.7,0.1-1.2-0.4,0.1-0.8c0.7-0.2,1.6-0.5,2.5-0.601c0.9-0.1,1.9-0.1,2.8,0c2.5,0.5,5.2,0.101,8-0.6c2.8-0.601,5.8-1.5,8.6-1.601
	c1.4-0.1,2.9-0.399,4.6-0.6c8.8-0.4,16.8-2.2,26-2.6c2.4-0.2,4.6-0.8,6.6-1.2C86.6,6,88.2,6.3,89.4,6.2C91.3,6.1,93,5.9,94.6,5.6
	c-1.8,0.1-3.1,0.3-5,0.5c-1.3,0.1,0.9-0.8,1.801-1c0.399-0.1,1,0.5,1.3,0.3c0.8,0,1.6-0.3,2.399-0.5c0.4-0.1,0.301,0.4,0.5,0.4
	c1.2-0.1,2.101-0.9,2.9-0.7c0.6,0.1,1.1,0.2,1.6,0.3c0.301,0,0.601,0.1,1,0c0.2,0,0.4-0.1,0.601-0.1c-0.2-0.2-0.2-0.4-0.3-0.6
	c0.3,0,0.8,0.2,1.1,0.2c-0.3,0-0.8-0.2-1.1-0.2c0.1,0.2,0.1,0.4,0.3,0.6c1.6-0.3,3.399-0.6,5.1-0.8c0,0,0,0,0-0.1
	c-1,0-1.899,0-3-0.4c0.4,0.1,0.4,0.3-0.1,0.3c-0.101-0.1-0.3-0.2-0.4-0.3c0.9-0.2,1.8-0.3,2.601,0.1c0,0,0.399-0.1,0.6-0.2
	c0.3,0.1,0.3,0.3,0.3,0.4c0.2,0,0.4,0,0.601,0C106.8,3.4,105.6,3,105.6,3z"/>
<path fill="#E4DCC9" d="M95.4,3c0.1,0,0.3,0,0.5-0.1c-0.601,0-1.301,0-1.9,0C94.3,3.2,94.8,3.1,95.4,3z"/>
</svg>
